<?xml version="1.0" encoding="utf-8"?>
<!-- Generator: Adobe Illustrator 22.0.1, SVG Export Plug-In . SVG Version: 6.00 Build 0)  -->
<svg version="1.1" id="Camada_1" xmlns="http://www.w3.org/2000/svg" xmlns:xlink="http://www.w3.org/1999/xlink" x="0px" y="0px"
	 viewBox="0 0 1000 1000" style="enable-background:new 0 0 1000 1000;" xml:space="preserve">
<style type="text/css">
	.st0{fill:#9EAEDA;}
</style>
<path class="st0" d="M677.9,450.1l-147.8-124c-12.8-10.8-33.8-10.8-46.7,0l-147.8,124c-12.8,10.8-9.6,19.6,7.1,19.6h11.8
	c0,0.7-0.1,1.4-0.1,2.1v146.6c0,16.8,13.7,30.5,30.5,30.5h243.7c16.8,0,30.5-13.7,30.5-30.5V471.8c0-0.7-0.1-1.4-0.1-2.1h11.8
	C687.5,469.7,690.7,460.9,677.9,450.1z M613.3,601.4h-213v-37h213V601.4z"/>
</svg>
