<?xml version="1.0" encoding="utf-8"?>
<!-- Generator: Adobe Illustrator 22.0.1, SVG Export Plug-In . SVG Version: 6.00 Build 0)  -->
<svg version="1.1" id="Camada_1" xmlns="http://www.w3.org/2000/svg" xmlns:xlink="http://www.w3.org/1999/xlink" x="0px" y="0px"
	 viewBox="0 0 1000 1000" style="enable-background:new 0 0 1000 1000;" xml:space="preserve">
<style type="text/css">
	.st0{fill:#9EAEDA;}
</style>
<path class="st0" d="M170,545.9v40.8H144v-113H170v9.5c6.4-7.8,14.9-11.5,24.2-11.5c20.5,0,35.9,15.2,35.9,42.9
	c0,27.8-15.4,43-35.9,43C185.1,557.6,176.8,554.1,170,545.9z M203.6,514.6c0-12.2-7.8-19.8-18-19.8c-5.6,0-12.4,3-15.6,7.5v24.9
	c3.2,4.2,10,7.5,15.6,7.5C195.8,534.6,203.6,527,203.6,514.6z"/>
<path class="st0" d="M243.8,555.6v-81.8h26.1v10c5.4-6.6,15.9-12.2,25.6-12.2v25.1c-1.5-0.5-3.7-0.7-6.4-0.7
	c-6.8,0-15.8,2.9-19.1,7.5v52.2H243.8z"/>
<path class="st0" d="M302,514.6c0-23,16.6-42.9,44.4-42.9c28.1,0,44.7,19.8,44.7,42.9c0,23-16.6,43-44.7,43
	C318.6,557.6,302,537.6,302,514.6z M364.4,514.6c0-10.8-6.4-19.8-18-19.8c-11.2,0-17.6,9-17.6,19.8c0,11,6.4,20,17.6,20
	C357.9,534.6,364.4,525.6,364.4,514.6z"/>
<path class="st0" d="M449.1,555.6l-15.6-24.7l-16.1,24.7H389l28-42l-26.3-39.8h28.6l14.1,22.2l13.9-22.2h28.6l-26.1,39.8l28,42
	H449.1z"/>
<path class="st0" d="M484.4,451.4c0-8.3,6.6-14.9,14.9-14.9c8.3,0,15.1,6.6,15.1,14.9s-6.8,15.1-15.1,15.1
	C491,466.5,484.4,459.7,484.4,451.4z M486.2,555.6v-81.8h26.1v81.8H486.2z"/>
<path class="st0" d="M748.3,555.6v-49.8c0-6.3-3-11-10.8-11c-7.1,0-12.2,4.6-14.7,8v52.9h-26.1v-49.8c0-6.3-2.9-11-10.7-11
	c-7.1,0-12,4.6-14.7,8v52.9h-26.1v-81.8h26.1v10c3.6-4.7,14.1-12,26.9-12c11.9,0,19.8,4.9,23.2,14.6c4.7-7.1,15.4-14.6,28.3-14.6
	c15.1,0,24.6,7.8,24.6,24.6v59.3H748.3z"/>
<path class="st0" d="M788.2,514.6c0-23,16.6-42.9,44.4-42.9c28.1,0,44.7,19.8,44.7,42.9c0,23-16.6,43-44.7,43
	C804.8,557.6,788.2,537.6,788.2,514.6z M850.5,514.6c0-10.8-6.4-19.8-18-19.8c-11.2,0-17.6,9-17.6,19.8c0,11,6.4,20,17.6,20
	C844.1,534.6,850.5,525.6,850.5,514.6z"/>
<path class="st0" d="M633,516.1l-46.8-39.3c-4.1-3.4-10.7-3.4-14.8,0l-46.8,39.3c-4.1,3.4-3.1,6.2,2.3,6.2h3.7c0,0.2,0,0.4,0,0.7
	v46.5c0,5.3,4.3,9.7,9.7,9.7h77.2c5.3,0,9.7-4.3,9.7-9.7V523c0-0.2,0-0.4,0-0.7h3.7C636,522.3,637,519.5,633,516.1z M612.5,564.1
	H545v-11.7h67.5V564.1z"/>
</svg>
